#!OML:ASF F:\VICON\USERDATA\INSTALL\rory3\rory3.ASF
:FULLY-SPECIFIED
:DEGREES
1964
root 13.5262 17.6705 -4.94469 187.297 200.062 182.945
lowerback 2.37659 -2.99066 -7.21387
upperback -1.30985 -4.18053 3.19783
thorax -1.94053 -1.97098 7.54362
lowerneck -8.84797 -6.9489 -13.568
upperneck 37.2038 -10.2937 6.5913
head 15.7496 -5.63402 3.48481
rclavicle -4.37326e-015 -2.38542e-014
rhumerus -35.1906 -8.79933 -75.7101
rradius 30.4138
rwrist 21.9524
rhand -28.0495 4.77517
rfingers 7.12502
rthumb -1.43374 -25.1998
lclavicle -4.37326e-015 -2.38542e-014
lhumerus -35.6354 12.0667 79.996
lradius 26.8495
lwrist -4.52708
lhand -18.8496 27.6269
lfingers 7.12502
lthumb 7.45031 57.4757
rfemur -19.3891 -9.48692 18.8823
rtibia 45.2496
rfoot -25.0826 -7.55839
rtoes -10.2486
lfemur -15.6602 7.18946 -26.9196
ltibia 27.8159
lfoot -17.3483 13.1284
ltoes -9.28419
1965
root 13.5238 17.6718 -4.971 187.416 200.436 182.732
lowerback 2.39117 -2.96297 -6.98311
upperback -1.32133 -4.13553 3.25943
thorax -1.97972 -1.94935 7.47807
lowerneck -9.09406 -7.06553 -13.5244
upperneck 37.3011 -10.4704 6.60192
head 15.8819 -5.69729 3.44276
rclavicle -5.46658e-015 -6.36111e-015
rhumerus -35.5438 -9.80278 -75.0442
rradius 29.7737
rwrist 22.3805
rhand -27.8885 4.41723
rfingers 7.12502
rthumb -1.27823 -25.5587
lclavicle -5.46658e-015 -6.36111e-015
lhumerus -35.2587 11.5193 80.5944
lradius 27.4953
lwrist -4.18143
lhand -18.7817 27.871
lfingers 7.12502
lthumb 7.51583 57.7174
rfemur -19.131 -9.26062 19.2196
rtibia 44.3559
rfoot -25.3459 -7.48268
rtoes -7.91497
lfemur -15.8833 7.33684 -26.7017
ltibia 28.0201
lfoot -17.5085 13.1643
ltoes -9.18637
1966
root 13.5208 17.6741 -4.9954 187.573 200.82 182.605
lowerback 2.3548 -2.9215 -6.83452
upperback -1.40367 -4.07289 3.32356
thorax -2.06149 -1.91359 7.46152
lowerneck -8.94896 -7.11583 -13.5633
upperneck 37.3245 -10.5748 6.60739
head 15.8787 -5.75268 3.43729
rclavicle 2.55438e-014 -3.02153e-014
rhumerus -36.0973 -10.5698 -74.3184
rradius 29.335
rwrist 22.6058
rhand -27.9477 3.21972
rfingers 7.12502
rthumb -1.3354 -26.7558
lclavicle 2.55438e-014 -3.02153e-014
lhumerus -35.0039 11.1337 81.1802
lradius 28.1858
lwrist -3.82405
lhand -19.037 27.9941
lfingers 7.12502
lthumb 7.2694 57.8492
rfemur -18.9894 -9.07876 19.458
rtibia 43.4753
rfoot -25.575 -7.51336
rtoes -4.30284
lfemur -16.1675 7.41749 -26.5791
ltibia 28.2088
lfoot -17.5878 13.3071
ltoes -9.11283
1967
root 13.5162 17.6746 -5.014 187.658 201.237 182.552
lowerback 2.39447 -2.95015 -6.81172
upperback -1.49314 -4.11304 3.3997
thorax -2.1661 -1.92631 7.53675
lowerneck -8.79513 -7.05547 -13.601
upperneck 37.364 -10.4795 6.52184
head 15.8447 -5.7371 3.42878
rclavicle 4.67144e-014 -7.95139e-015
rhumerus -36.608 -11.0591 -73.7102
rradius 28.9359
rwrist 23.002
rhand -27.964 2.69306
rfingers 7.12502
rthumb -1.35118 -27.2824
lclavicle 4.67144e-014 -7.95139e-015
lhumerus -34.8722 10.7491 81.7145
lradius 28.9549
lwrist -3.2514
lhand -19.1506 27.8715
lfingers 7.12502
lthumb 7.15974 57.7304
rfemur -18.838 -8.86819 19.5971
rtibia 42.6316
rfoot -25.7364 -7.77565
rtoes -3.1809
lfemur -16.3573 7.35471 -26.5348
ltibia 28.3579
lfoot -17.6478 13.6367
ltoes -8.80472
1968
root 13.5116 17.6743 -5.03436 187.777 201.589 182.555
lowerback 2.38958 -3.03163 -6.82694
upperback -1.52176 -4.22224 3.43959
thorax -2.16969 -1.97978 7.59062
lowerneck -8.89006 -7.00293 -13.6351
upperneck 37.4385 -10.4047 6.5456
head 15.8988 -5.7098 3.45635
rclavicle -1.04064e-013 1.35174e-014
rhumerus -36.8814 -11.7039 -73.198
rradius 28.4787
rwrist 23.594
rhand -27.9534 3.07567
rfingers 7.12502
rthumb -1.34094 -26.8999
lclavicle -1.04064e-013 1.35174e-014
lhumerus -34.6193 10.3112 82.1821
lradius 29.7484
lwrist -2.85712
lhand -19.2448 27.3324
lfingers 7.12502
lthumb 7.06888 57.1943
rfemur -18.7766 -8.78747 19.6988
rtibia 41.8376
rfoot -25.8665 -8.11908
rtoes -4.53822
lfemur -16.6185 7.20217 -26.5503
ltibia 28.4937
lfoot -17.6611 14.0089
ltoes -8.53012
1969
root 13.5079 17.6794 -5.06271 187.967 201.825 182.484
lowerback 2.32523 -3.09037 -6.73291
upperback -1.47649 -4.29256 3.47023
thorax -2.07767 -2.02221 7.56391
lowerneck -9.05761 -7.02672 -13.6492
upperneck 37.4178 -10.4484 6.62986
head 15.942 -5.71584 3.48147
rclavicle -4.26393e-014 3.02153e-014
rhumerus -37.0509 -12.2758 -72.8992
rradius 28.1466
rwrist 23.6007
rhand -28.4351 3.16092
rfingers 7.12502
rthumb -1.80618 -26.8112
lclavicle -4.26393e-014 3.02153e-014
lhumerus -34.0697 9.92929 82.6443
lradius 30.3485
lwrist -2.74406
lhand -20.2397 25.826
lfingers 7.12502
lthumb 6.1084 55.718
rfemur -18.7859 -8.65214 19.917
rtibia 41.1021
rfoot -26.0372 -8.31828
rtoes -3.95788
lfemur -16.9587 7.01952 -26.461
ltibia 28.6404
lfoot -17.6957 14.2618
ltoes -7.79988
1970
root 13.5022 17.6854 -5.09156 188.085 202.068 182.361
lowerback 2.36719 -3.13386 -6.57589
upperback -1.40365 -4.34623 3.49668
thorax -2.02462 -2.05618 7.50257
lowerneck -9.402 -7.07949 -13.4291
upperneck 37.4874 -10.4582 6.40843
head 16.027 -5.70793 3.33364
rclavicle -6.83819e-014 -9.54166e-015
rhumerus -37.1539 -12.5776 -72.7913
rradius 27.7969
rwrist 23.1924
rhand -29.15 2.99924
rfingers 7.12502
rthumb -2.49656 -26.9659
lclavicle -6.83819e-014 -9.54166e-015
lhumerus -33.5485 9.56728 83.0565
lradius 31.018
lwrist -2.67539
lhand -20.1646 26.0096
lfingers 7.12502
lthumb 6.18087 55.8994
rfemur -18.6777 -8.28727 20.1476
rtibia 40.4492
rfoot -26.3721 -8.29369
rtoes -1.58437
lfemur -17.1966 7.05484 -26.3114
ltibia 28.7786
lfoot -17.7849 14.3633
ltoes -6.7324
1971
root 13.4967 17.6832 -5.11633 188.127 202.423 182.277
lowerback 2.46036 -3.17071 -6.43602
upperback -1.34361 -4.39504 3.49221
thorax -2.01608 -2.08499 7.42236
lowerneck -9.77755 -7.10518 -13.1389
upperneck 37.5889 -10.4284 6.13958
head 16.1206 -5.68039 3.15942
rclavicle -6.08281e-014 1.74931e-014
rhumerus -37.3857 -13.0036 -72.4808
rradius 27.51
rwrist 23.2804
rhand -29.0357 2.86111
rfingers 7.12502
rthumb -2.38615 -27.1053
lclavicle -6.08281e-014 1.74931e-014
lhumerus -33.1861 9.29102 83.3305
lradius 31.7689
lwrist -2.92054
lhand -19.5336 26.0584
lfingers 7.12502
lthumb 6.79002 55.9295
rfemur -18.4956 -7.84103 20.2993
rtibia 39.8667
rfoot -26.6886 -8.16515
rtoes 0.508655
lfemur -17.3649 7.17913 -26.2369
ltibia 28.9254
lfoot -17.7444 14.6762
ltoes -6.52387
1972
root 13.4927 17.6803 -5.1364 188.156 202.81 182.252
lowerback 2.50975 -3.14466 -6.3025
upperback -1.30234 -4.35808 3.45139
thorax -2.01982 -2.0695 7.30374
lowerneck -10.0321 -7.19109 -13.0926
upperneck 37.7581 -10.5568 6.12563
head 16.2846 -5.7266 3.11435
rclavicle -1.15096e-013 2.3059e-014
rhumerus -37.815 -13.5022 -72.015
rradius 27.4573
rwrist 23.6393
rhand -28.2735 2.77025
rfingers 7.12502
rthumb -1.65003 -27.2031
lclavicle -1.15096e-013 2.3059e-014
lhumerus -32.8267 8.60862 83.7814
lradius 32.4798
lwrist -2.87628
lhand -19.1693 26.5616
lfingers 7.12502
lthumb 7.14172 56.4211
rfemur -18.3187 -7.47891 20.3705
rtibia 39.2966
rfoot -26.7353 -8.17339
rtoes 1.39125
lfemur -17.5471 7.13785 -26.2264
ltibia 29.1248
lfoot -17.7265 15.1756
ltoes -6.23589
1973
root 13.4876 17.6818 -5.1607 188.255 203.118 182.193
lowerback 2.51307 -3.17294 -6.20621
upperback -1.23125 -4.39135 3.48467
thorax -1.94623 -2.09283 7.28159
lowerneck -10.1409 -7.21936 -13.1701
upperneck 37.7364 -10.5992 6.20653
head 16.319 -5.74264 3.15072
rclavicle -4.9895e-014 6.36111e-015
rhumerus -38.0253 -13.9704 -71.5923
rradius 27.3252
rwrist 23.9987
rhand -27.8963 2.93775
rfingers 7.12502
rthumb -1.28572 -27.0381
lclavicle -4.9895e-014 6.36111e-015
lhumerus -32.378 8.08655 84.2478
lradius 33.1508
lwrist -2.62878
lhand -18.9684 27.1122
lfingers 7.12502
lthumb 7.33566 56.9651
rfemur -18.1842 -7.17026 20.5098
rtibia 38.6984
rfoot -26.7848 -8.53348
rtoes 0.242565
lfemur -17.8513 7.21754 -26.181
ltibia 29.4003
lfoot -17.7643 15.394
ltoes -5.96972
1974
root 13.4821 17.6852 -5.18539 188.507 203.325 181.814
lowerback 2.4912 -3.26197 -5.78006
upperback -1.17406 -4.49212 3.58935
thorax -1.88019 -2.15357 7.14675
lowerneck -9.98127 -7.16304 -13.1189
upperneck 37.5029 -10.5344 6.22034
head 16.1442 -5.70873 3.16189
rclavicle -5.36719e-014 3.10104e-014
rhumerus -38.1113 -14.1958 -71.3649
rradius 27.0169
rwrist 23.95
rhand -27.9511 3.39604
rfingers 7.12502
rthumb -1.33873 -26.5795
lclavicle -5.36719e-014 3.10104e-014
lhumerus -31.9352 7.61295 84.6535
lradius 33.7891
lwrist -2.44053
lhand -19.1239 27.4199
lfingers 7.12502
lthumb 7.18558 57.2779
rfemur -18.0525 -6.77218 20.9869
rtibia 38.0736
rfoot -27.0605 -9.08748
rtoes -1.04307
lfemur -18.1941 7.20869 -25.7865
ltibia 29.6882
lfoot -17.7768 15.6626
ltoes -6.47432
